# Blender 4.4.0
# www.blender.org
mtllib Platform.mtl
o Cube.001
v 1.046550 -5.749623 1.312306
v 1.316839 -5.749623 1.055408
v 1.316839 -0.026877 1.055408
v 1.046550 -0.026877 1.312306
v 1.316839 -0.026877 1.312306
v 1.316839 -5.749623 1.312306
v -1.046550 -5.749623 1.312306
v -1.316839 -5.749623 1.055408
v -1.316839 -0.026877 1.055408
v -1.046550 -0.026877 1.312306
v -1.316839 -0.026877 1.312306
v -1.316839 -5.749623 1.312306
v 1.263140 0.050833 1.263140
v 1.263140 0.050833 -1.263140
v 1.451999 -0.101666 1.451999
v 1.451999 0.050833 1.451999
v 1.451999 0.050833 -1.451999
v 1.451999 -0.101666 -1.451999
v 1.046550 -5.749623 -1.312306
v 1.316839 -5.749623 -1.055408
v 1.316839 -0.026877 -1.055408
v 1.046550 -0.026877 -1.312306
v 1.316839 -0.026877 -1.312306
v 1.316839 -5.749623 -1.312306
v -1.263140 0.050833 1.263140
v -1.263140 0.050833 -1.263140
v -1.451999 -0.101666 1.451999
v -1.451999 0.050833 1.451999
v -1.451999 0.050833 -1.451999
v -1.451999 -0.101666 -1.451999
v -1.046550 -5.749623 -1.312306
v -1.316839 -5.749623 -1.055408
v -1.316839 -0.026877 -1.055408
v -1.046550 -0.026877 -1.312306
v -1.316839 -0.026877 -1.312306
v -1.316839 -5.749623 -1.312306
vn -0.0000 -0.0000 1.0000
vn 1.0000 -0.0000 -0.0000
vn -0.6889 -0.0000 -0.7248
vn -1.0000 -0.0000 -0.0000
vn 0.6889 -0.0000 -0.7248
vn -0.0000 1.0000 -0.0000
vn -0.0000 -0.0000 -1.0000
vn -0.6889 -0.0000 0.7248
vn 0.6889 -0.0000 0.7248
vt 0.891395 0.000554
vt 0.891395 0.747832
vt 0.856101 0.747832
vt 0.856101 0.000554
vt 0.000554 0.929631
vt 0.747832 0.929631
vt 0.747832 0.963177
vt 0.000554 0.963177
vt 0.000555 0.806159
vt 0.747832 0.806159
vt 0.747832 0.854852
vt 0.000555 0.854852
vt 0.000554 0.891395
vt 0.000554 0.856101
vt 0.747832 0.856101
vt 0.747832 0.891395
vt 0.964869 0.252442
vt 0.998415 0.252442
vt 0.998415 0.999720
vt 0.964869 0.999720
vt 0.755259 0.000554
vt 0.803952 0.000554
vt 0.803952 0.747832
vt 0.755259 0.747832
vt 0.673102 0.673102
vt 0.081409 0.673101
vt 0.081409 0.081409
vt 0.673102 0.081409
vt 0.001458 0.717335
vt 0.001458 0.037175
vt 0.037176 0.037175
vt 0.037176 0.717335
vt 0.717335 0.717335
vt 0.892644 0.000554
vt 0.927939 0.000554
vt 0.927939 0.747832
vt 0.892644 0.747832
vt 0.000554 0.999720
vt 0.000554 0.966174
vt 0.747832 0.966174
vt 0.747832 0.999720
vt 0.806159 0.000554
vt 0.854852 0.000554
vt 0.854852 0.747832
vt 0.806159 0.747832
vt 0.717335 0.753053
vt 0.037176 0.753053
vt 0.717335 0.037176
vt 0.753053 0.717335
vt 0.753053 0.037176
vt 0.000554 0.892644
vt 0.747832 0.892644
vt 0.747832 0.927939
vt 0.000554 0.927939
vt 0.963177 0.000554
vt 0.963177 0.747832
vt 0.929631 0.747832
vt 0.929631 0.000554
vt 0.000554 0.755259
vt 0.747832 0.755259
vt 0.747832 0.803952
vt 0.000554 0.803953
vt 0.717335 0.001458
vt 0.037176 0.001458
s 0
usemtl Material.004
f 6/1/1 5/2/1 4/3/1 1/4/1
f 2/5/2 3/6/2 5/7/2 6/8/2
f 1/9/3 4/10/3 3/11/3 2/12/3
f 12/13/1 7/14/1 10/15/1 11/16/1
f 8/17/4 12/18/4 11/19/4 9/20/4
f 7/21/5 8/22/5 9/23/5 10/24/5
f 25/25/6 13/26/6 14/27/6 26/28/6
f 15/29/2 18/30/2 17/31/2 16/32/2
f 13/26/6 25/25/6 28/33/6 16/32/6
f 13/26/6 16/32/6 17/31/6 14/27/6
f 24/34/7 19/35/7 22/36/7 23/37/7
f 20/38/2 24/39/2 23/40/2 21/41/2
f 19/42/8 20/43/8 21/44/8 22/45/8
f 16/32/1 28/33/1 27/46/1 15/47/1
f 26/28/6 14/27/6 17/31/6 29/48/6
f 27/49/4 28/33/4 29/48/4 30/50/4
f 25/25/6 26/28/6 29/48/6 28/33/6
f 36/51/7 35/52/7 34/53/7 31/54/7
f 32/55/4 33/56/4 35/57/4 36/58/4
f 31/59/9 34/60/9 33/61/9 32/62/9
f 30/63/7 29/48/7 17/31/7 18/64/7
