# Blender 4.4.0
# www.blender.org
mtllib Ramp 15 degrees.mtl
o Plane.005
v -1.931852 0.517638 1.520174
v -0.000000 0.000000 1.520174
v -1.931852 0.517638 -1.000000
v -0.000000 0.000000 -1.000000
v -1.931851 0.704808 1.520174
v -0.000000 0.187170 1.520174
v -1.931851 0.704808 -1.000000
v -0.000000 0.187170 -1.000000
v -1.931851 0.704808 1.720174
v -0.000000 0.187170 1.720174
v -1.931851 0.704808 -1.200000
v -0.000000 0.187170 -1.200000
v -1.931852 0.517638 1.720174
v -0.000000 0.000000 1.720174
v -1.931852 0.517638 -1.200000
v -0.000000 0.000000 -1.200000
vn 0.2588 0.9659 -0.0000
vn -0.0000 -0.0000 1.0000
vn -0.0000 -0.0000 -1.0000
vt 0.000809 0.778828
vt 0.000809 0.000809
vt 0.778828 0.000809
vt 0.778828 0.778828
vt 0.781995 0.760429
vt 0.781995 0.000809
vt 0.850662 0.019208
vt 0.850662 0.778828
vt 0.000809 0.850662
vt 0.760429 0.850661
vt 0.778828 0.781995
vt 0.019208 0.781995
vt 0.924038 0.759924
vt 0.924038 0.000304
vt 1.000000 0.000304
vt 1.000000 0.759924
vt 0.000304 0.924038
vt 0.759924 0.924038
vt 0.759924 1.000000
vt 0.000304 1.000000
vt 0.922495 0.778828
vt 0.922495 0.019208
vt 0.853828 0.000809
vt 0.853829 0.760429
vt 0.019208 0.853829
vt 0.778828 0.853828
vt 0.760429 0.922495
vt 0.000809 0.922495
s 0
usemtl Plaster_wall
f 1/1/1 2/2/1 4/3/1 3/4/1
usemtl AR3DMat_Procedural_Striped_Road_Marking
f 3/5/2 4/6/2 8/7/2 7/8/2
f 2/9/3 1/10/3 5/11/3 6/12/3
f 7/13/1 8/14/1 12/15/1 11/16/1
f 6/17/1 5/18/1 9/19/1 10/20/1
f 11/21/3 12/22/3 16/23/3 15/24/3
f 10/25/2 9/26/2 13/27/2 14/28/2
o Plane.001
v -1.931852 0.517638 1.520174
v -0.000000 0.000000 1.520174
v -1.931852 0.517638 -1.000000
v -0.000000 0.000000 -1.000000
v -1.931851 0.704808 1.520174
v -0.000000 0.187170 1.520174
v -1.931851 0.704808 -1.000000
v -0.000000 0.187170 -1.000000
v -1.931851 0.704808 1.720174
v -0.000000 0.187170 1.720174
v -1.931851 0.704808 -1.200000
v -0.000000 0.187170 -1.200000
v -1.931852 0.517638 1.720174
v -0.000000 0.000000 1.720174
v -1.931852 0.517638 -1.200000
v -0.000000 0.000000 -1.200000
vn 0.2588 0.9659 -0.0000
vn -0.0000 -0.0000 1.0000
vn -0.0000 -0.0000 -1.0000
vt 0.000140 0.000140
vt 0.639976 0.000140
vt 0.639976 0.806389
vt 0.000141 0.806389
vt 0.819918 0.015638
vt 0.819918 0.655474
vt 0.762079 0.639976
vt 0.762079 0.000141
vt 0.999860 0.000140
vt 0.999860 0.639976
vt 0.942021 0.655474
vt 0.942021 0.015638
vt 0.698096 0.639976
vt 0.698096 0.000140
vt 0.878037 0.655474
vt 0.878037 0.015638
vt 0.640257 0.655474
vt 0.640257 0.015638
vt 0.820199 0.639976
vt 0.820199 0.000140
s 0
usemtl Material.001
f 17/29/4 18/30/4 20/31/4 19/32/4
f 19/33/5 20/34/5 24/35/5 23/36/5
f 18/37/6 17/38/6 21/39/6 22/40/6
f 23/36/4 24/35/4 28/41/4 27/42/4
f 22/40/4 21/39/4 25/43/4 26/44/4
f 27/42/6 28/41/6 32/45/6 31/46/6
f 26/44/5 25/43/5 29/47/5 30/48/5
